<svg xmlns="http://www.w3.org/2000/svg" xmlns:xlink="http://www.w3.org/1999/xlink" viewBox="0 0 420 300.84"><defs><linearGradient id="uuid-9e5d44f8-55eb-4bcf-8803-4d2b5ee59683" x1="90.81" x2="90.81" y1="118.75" y2="166.1" gradientUnits="userSpaceOnUse"><stop offset="0" stop-color="#ffcbfc"/><stop offset="1" stop-color="#fff"/></linearGradient><linearGradient xlink:href="#uuid-9e5d44f8-55eb-4bcf-8803-4d2b5ee59683" id="uuid-ee4407cb-4f82-45ea-bf58-ca66feeb62a3" x1="329.15" x2="329.15"/><linearGradient id="uuid-4fd076b9-c548-4fe7-9108-f77c6a3c30ac" x1="119.24" x2="300.72" y1="44.37" y2="44.37" gradientUnits="userSpaceOnUse"><stop offset="0" stop-color="#71fffb"/><stop offset="1" stop-color="#cbfb45"/></linearGradient><linearGradient xlink:href="#uuid-4fd076b9-c548-4fe7-9108-f77c6a3c30ac" id="uuid-dfb6a71b-c69b-4eef-98d7-673fe6c1c1d3" x1="375.1" x2="375.1" y1="300.23" y2="118.75"/><linearGradient xlink:href="#uuid-4fd076b9-c548-4fe7-9108-f77c6a3c30ac" id="uuid-d459b4a1-eed8-4a72-8eb8-817c4364e1a0" x1="44.86" x2="44.86" y1="300.23" y2="118.75"/><style>.uuid-2ccfff90-a484-4cf5-84ef-d0cb53be579c{fill:none;stroke:#000;stroke-linecap:round;stroke-linejoin:round}</style></defs><g style="isolation:isolate"><g id="uuid-c87e9847-d785-4260-8b8c-b4fa4962d45d"><path fill="#fff" stroke-width="0" d="M390.93 209.49c0-50.11 6.27-90.74 14-90.74H300.72V14.54c0 7.73-40.63 14-90.74 14s-90.74-6.27-90.74-14v104.21H15.03c7.73 0 14 40.63 14 90.74s-6.27 90.74-14 90.74h389.9c-7.73 0-14-40.63-14-90.74z"/><path fill="none" stroke-width="0" d="M300.72 72.53v164.41H119.24V71.73c2.91 1.51 6.38 2.46 10.83 2.46 20.2 0 20.2-19.8 40.38-19.8s20.19 19.8 40.38 19.8 20.18-19.8 40.37-19.8 20.2 19.8 40.38 19.8c3.61 0 6.58-.64 9.13-1.67z"/><path d="M300.72 14.53v57.99c-2.55 1.03-5.52 1.67-9.13 1.67-20.19 0-20.19-19.8-40.38-19.8s-20.19 19.8-40.37 19.8-20.2-19.8-40.38-19.8-20.18 19.8-40.38 19.8c-4.45 0-7.92-.96-10.83-2.46v-57.2c0 7.73 40.62 14 90.74 14s90.74-6.27 90.74-14zm104.21 285.7h-57.99c-1.03-2.55-1.67-5.52-1.67-9.13 0-20.19 19.8-20.19 19.8-40.38s-19.8-20.19-19.8-40.37 19.8-20.2 19.8-40.38-19.8-20.18-19.8-40.38c0-4.45.96-7.92 2.46-10.83h57.2c-7.73 0-14 40.62-14 90.74s6.27 90.74 14 90.74zm-389.9 0h57.99c1.03-2.55 1.67-5.52 1.67-9.13 0-20.19-19.8-20.19-19.8-40.38s19.8-20.19 19.8-40.37c0-20.2-19.8-20.2-19.8-40.38 0-20.18 19.8-20.18 19.8-40.38 0-4.45-.96-7.92-2.46-10.83h-57.2c7.73 0 14 40.62 14 90.74s-6.27 90.74-14 90.74z" style="fill:#cbfb45;stroke-width:0"/></g><g id="uuid-b59029a1-f889-4d65-a1de-0027659d9d8b" stroke-width="0"><path fill="url(#uuid-9e5d44f8-55eb-4bcf-8803-4d2b5ee59683)" d="M166.6 166.1H27.34c-2.39-28.22-7-47.36-12.31-47.36h104.21l47.36 47.36z" style="mix-blend-mode:multiply"/><path fill="url(#uuid-ee4407cb-4f82-45ea-bf58-ca66feeb62a3)" d="M404.93 118.75c-5.31 0-9.92 19.14-12.31 47.36H253.36l47.36-47.36h104.21z" style="mix-blend-mode:multiply"/><path fill="url(#uuid-4fd076b9-c548-4fe7-9108-f77c6a3c30ac)" d="M300.72 14.53v57.99c-2.55 1.03-5.52 1.67-9.13 1.67-20.19 0-20.19-19.8-40.38-19.8s-20.19 19.8-40.37 19.8-20.2-19.8-40.38-19.8-20.18 19.8-40.38 19.8c-4.45 0-7.92-.96-10.83-2.46v-57.2c0 7.73 40.62 14 90.74 14s90.74-6.27 90.74-14z"/><path fill="url(#uuid-dfb6a71b-c69b-4eef-98d7-673fe6c1c1d3)" d="M404.93 300.23h-57.99c-1.03-2.55-1.67-5.52-1.67-9.13 0-20.19 19.8-20.19 19.8-40.38s-19.8-20.19-19.8-40.37 19.8-20.2 19.8-40.38-19.8-20.18-19.8-40.38c0-4.45.96-7.92 2.46-10.83h57.2c-7.73 0-14 40.62-14 90.74s6.27 90.74 14 90.74z"/><path fill="url(#uuid-d459b4a1-eed8-4a72-8eb8-817c4364e1a0)" d="M15.03 300.23h57.99c1.03-2.55 1.67-5.52 1.67-9.13 0-20.19-19.8-20.19-19.8-40.38s19.8-20.19 19.8-40.37c0-20.2-19.8-20.2-19.8-40.38 0-20.18 19.8-20.18 19.8-40.38 0-4.45-.96-7.92-2.46-10.83h-57.2c7.73 0 14 40.62 14 90.74s-6.27 90.74-14 90.74z"/></g><g id="uuid-99f63b5f-0de1-453a-b06c-ff500bfe07bf"><path d="M390.93 209.49c0-50.11 6.27-90.74 14-90.74H300.72V14.54c0 7.73-40.63 14-90.74 14s-90.74-6.27-90.74-14v104.21H15.03c7.73 0 14 40.63 14 90.74s-6.27 90.74-14 90.74h389.9c-7.73 0-14-40.63-14-90.74z" class="uuid-2ccfff90-a484-4cf5-84ef-d0cb53be579c"/><path d="M300.72 72.53c-2.55 1.03-5.52 1.67-9.13 1.67-20.19 0-20.19-19.8-40.38-19.8s-20.19 19.8-40.37 19.8-20.2-19.8-40.38-19.8-20.18 19.8-40.38 19.8c-4.45 0-7.92-.96-10.83-2.46m227.69 228.49c-1.03-2.55-1.67-5.52-1.67-9.13 0-20.19 19.8-20.19 19.8-40.38s-19.8-20.19-19.8-40.37 19.8-20.2 19.8-40.38-19.8-20.18-19.8-40.38c0-4.45.96-7.92 2.46-10.83M73.02 300.23c1.03-2.55 1.67-5.52 1.67-9.13 0-20.19-19.8-20.19-19.8-40.38s19.8-20.19 19.8-40.37c0-20.2-19.8-20.2-19.8-40.38 0-20.18 19.8-20.18 19.8-40.38 0-4.45-.96-7.92-2.46-10.83" class="uuid-2ccfff90-a484-4cf5-84ef-d0cb53be579c"/></g></g></svg>